# xmcd
#
# Track frame offsets:
#	150
#	18116
#	37955
#	50915
#	76967
#	93079
#	109581
#	127372
#	149076
#	164177
#	180314
#	212262
#
# Disc length: 3557 seconds
#
# Revision: 1
# Processed by: cddbd v1.4PL0 Copyright (c) Steve Scherf et al.
# Submitted via: EasyCDDAExtractor 5.0.6
#
DISCID=a20de30c
DTITLE=Studio Jam 2000 - Take It From The One
DYEAR=2000
DGENRE=Blues
TTITLE0=Take A Train To Ride
TTITLE1=I Read About My Baby
TTITLE2=30 Days
TTITLE3=I Love The Way
TTITLE4=Kind Hearted Woman
TTITLE5=Red Red Wine
TTITLE6=A Highway Called The Blues
TTITLE7=You Win Again
TTITLE8=Friday Night Gig
TTITLE9=Red Beans Cooking
TTITLE10=Give Me Back My Wig
TTITLE11=The Thrill Is Gone
EXTD=
EXTT0=
EXTT1=
EXTT2=
EXTT3=
EXTT4=
EXTT5=
EXTT6=
EXTT7=
EXTT8=
EXTT9=
EXTT10=
EXTT11=
PLAYORDER=
